<svg xmlns="http://www.w3.org/2000/svg" version="1.1" xmlns:xlink="http://www.w3.org/1999/xlink" xmlns:svgjs="http://svgjs.dev/svgjs" width="1000" height="262" viewBox="0 0 1000 262"><g transform="matrix(1,0,0,1,-0.6060330256241286,-0.578148902758528)"><svg viewBox="0 0 396 104" data-background-color="#ffffff" preserveAspectRatio="xMidYMid meet" height="262" width="1000" xmlns="http://www.w3.org/2000/svg" xmlns:xlink="http://www.w3.org/1999/xlink"><g id="tight-bounds" transform="matrix(1,0,0,1,0.2399893500178223,0.2294942209423141)"><svg viewBox="0 0 395.52 103.54099796569955" height="103.54099796569955" width="395.52"><g><svg viewBox="0 0 570.3243172236237 149.3020554445798" height="103.54099796569955" width="395.52"><g transform="matrix(1,0,0,1,174.8043172236237,20.634365115712548)"><svg viewBox="0 0 395.52 108.0333252131547" height="108.0333252131547" width="395.52"><g id="textblocktransform"><svg viewBox="0 0 395.52 108.0333252131547" height="108.0333252131547" width="395.52" id="textblock"><g><svg viewBox="0 0 395.52 108.0333252131547" height="108.0333252131547" width="395.52"><g transform="matrix(1,0,0,1,0,0)"><svg width="395.52" viewBox="3.5999999046325684 -33.75 164.1899871826172 44.849998474121094" height="108.0333252131547" data-palette-color="#8dbdff"><path d="M32.45-31.6Q33.15-31.6 34.18-30.68 35.2-29.75 35.2-29.1L35.2-29.1Q35.2-26.05 35-20.75L35-20.75Q34.95-19.45 34.9-17.63 34.85-15.8 34.85-13.4L34.85-13.4Q34.85-5.8 35.75-2.2L35.75-2.2Q35.7-1 34.8-0.48 33.9 0.05 33 0.05L33 0.05Q31 0.05 30.38-1.35 29.75-2.75 29.75-5.35L29.75-5.35Q29.75-15 29.95-23.1L29.95-23.1Q24.2-16.7 21-12.35L21-12.35Q21-12.35 20.1-11.75L20.1-11.75Q19.25-11 18.7-11L18.7-11Q17.4-11 16.55-11.65 15.7-12.3 14.9-13.55L14.9-13.55 12.5-16.95Q10-20.45 8.85-22.25L8.85-22.25Q8.85-17.65 9.3-9.75L9.3-9.75Q9.65-5.2 9.65-2.9L9.65-2.9Q9.65-1.7 9.05-0.88 8.45-0.05 7.15-0.05L7.15-0.05Q5.85-0.05 5.03-0.55 4.2-1.05 4.15-2.05L4.15-2.05Q4.2-2.9 4.2-4.85L4.2-4.85Q4.2-8.75 3.95-14.35L3.95-14.35 3.85-17.05 3.75-20.55Q3.7-22.1 3.65-24.18 3.6-26.25 3.6-28.7L3.6-28.7Q3.6-31.7 6.85-31.7L6.85-31.7Q7.85-31.7 8.88-31.2 9.9-30.7 10.4-29.75L10.4-29.75Q10.8-28 13.35-23.95 15.9-19.9 18.35-16.35L18.35-16.35Q20.55-19.15 21.95-20.55L21.95-20.55Q24.35-23 25.93-25.1 27.5-27.2 29.35-30.15L29.35-30.15Q29.8-30.75 30.65-31.18 31.5-31.6 32.45-31.6L32.45-31.6ZM64.7-2.4Q64.7-1.3 63.52-0.55 62.35 0.2 61.35 0.2L61.35 0.2Q59.45 0.2 58.32-0.28 57.2-0.75 56.25-2.05L56.25-2.05Q54.95-0.9 52.7-0.33 50.45 0.25 48.55 0.25L48.55 0.25Q45.45 0.25 43.45-1.43 41.45-3.1 41.45-6.35L41.45-6.35Q41.45-7.75 42.2-8.93 42.95-10.1 44.25-11L44.25-11Q45.7-11.95 47.55-12.48 49.4-13 51.4-13L51.4-13Q52.45-13 53.9-12.6 55.35-12.2 56.15-11.75L56.15-11.75 56.15-12.55Q56.15-15.25 54.85-16.28 53.55-17.3 50.65-17.3L50.65-17.3Q49.8-17.3 48.97-16.95 48.15-16.6 47.1-16L47.1-16Q45.7-15.25 44.45-15.25L44.45-15.25Q44-15.25 43.6-15.88 43.2-16.5 43.2-17L43.2-17Q43.2-18.45 44.57-19.5 45.95-20.55 47.85-21.08 49.75-21.6 51.25-21.6L51.25-21.6Q52.75-21.6 54.7-21.03 56.65-20.45 57.9-19.45L57.9-19.45Q59.4-18.15 60.22-16.43 61.05-14.7 61.05-12.65L61.05-12.65Q61.05-12 60.95-10.7L60.95-10.7Q60.85-9.3 60.85-8.3L60.85-8.3Q60.85-7.85 60.75-6.95L60.75-6.95Q60.65-5.85 60.65-5.2L60.65-5.2Q60.65-4.6 61.1-4.17 61.55-3.75 62.15-3.75L62.15-3.75 63.55-3.8Q64.1-3.8 64.4-3.4 64.7-3 64.7-2.4L64.7-2.4ZM48.6-3.7Q50.75-3.7 52.2-4.15 53.65-4.6 55.7-5.8L55.7-5.8Q55.9-6.65 55.95-8.05L55.95-8.05Q53.2-9.35 51.4-9.35L51.4-9.35Q49.35-9.35 47.75-8.6 46.15-7.85 46.15-5.95L46.15-5.95Q46.15-5 46.95-4.35 47.75-3.7 48.6-3.7L48.6-3.7ZM69.15-17.4Q68.7-17.4 68.3-17.32 67.9-17.25 67.5-17.25L67.5-17.25Q66.95-17.25 66.47-17.75 66-18.25 66-18.65L66-18.65Q66-19.95 67.3-20.68 68.6-21.4 69.95-21.4L69.95-21.4Q71.1-21.4 72.32-20.63 73.55-19.85 74.15-18.65L74.15-18.65Q75.45-20.2 77.35-20.9 79.25-21.6 81.3-21.6L81.3-21.6Q83.6-21.6 85.57-20.15 87.55-18.7 88.7-16.48 89.85-14.25 89.85-12.05L89.85-12.05Q89.85-9.9 89.4-8.22 88.95-6.55 87.8-4.85L87.8-4.85Q86.5-3.05 84.32-1.9 82.15-0.75 79.15-0.75L79.15-0.75Q78.35-0.75 77.2-1.18 76.05-1.6 75.3-2.1L75.3-2.1Q74.95 1.3 74.95 3.8L74.95 3.8Q74.95 5.3 75.1 6.65L75.1 6.65Q75.2 8.25 75.2 8.95L75.2 8.95Q75.2 10.05 74.45 10.58 73.7 11.1 72.8 11.1L72.8 11.1Q71 11.1 70.42 10.13 69.85 9.15 69.85 7.35L69.85 7.35Q70.05 3.05 70.35-0.6L70.35-0.6Q70.65-5.1 70.65-14.5L70.65-14.5Q70.65-15.4 70.3-16.4 69.95-17.4 69.15-17.4L69.15-17.4ZM75.5-7.05Q75.75-6.1 76.92-5.48 78.1-4.85 79.05-4.85L79.05-4.85Q81.9-4.85 83.3-6.4L83.3-6.4Q84.35-7.5 84.67-8.55 85-9.6 85-11.9L85-11.9Q85-13.7 84.3-14.93 83.6-16.15 82.6-16.73 81.6-17.3 80.7-17.3L80.7-17.3Q78.65-17.3 77.37-16.07 76.1-14.85 75.75-12.75L75.75-12.75Q75.5-11.1 75.5-7.05L75.5-7.05ZM95.64-9Q95.64-11.8 95.69-13.25L95.69-13.25 95.74-18Q95.74-20.9 95.59-24.35L95.59-24.35Q95.54-25.4 95.24-27.25L95.24-27.25Q94.84-30.05 94.84-31.45L94.84-31.45Q94.84-33.75 97.14-33.75L97.14-33.75Q98.59-33.75 99.22-32.98 99.84-32.2 100.09-30.55L100.09-30.55Q100.59-27.1 100.59-22.45L100.59-22.45Q100.59-21.05 100.49-18.25L100.49-18.25Q101.44-19.75 102.97-20.6 104.49-21.45 105.99-21.45L105.99-21.45Q110.34-21.45 113.49-17.85L113.49-17.85Q114.34-16.6 115.02-14.88 115.69-13.15 115.69-11.9L115.69-11.9Q115.69-9.7 115.22-7.85 114.74-6 113.54-4.25L113.54-4.25Q112.34-2.5 110.52-1.4 108.69-0.3 106.29-0.3L106.29-0.3Q104.19-0.3 102.52-1.15 100.84-2 99.84-3.4L99.84-3.4Q99.59-2.15 98.74-0.93 97.89 0.3 96.79 0.3L96.79 0.3Q95.89 0.3 95.29-0.18 94.69-0.65 94.69-1.6L94.69-1.6Q94.69-2.3 94.99-3.35L94.99-3.35Q95.29-4.8 95.47-6.03 95.64-7.25 95.64-9L95.64-9ZM105.04-4.45Q107.49-4.45 109.14-6.18 110.79-7.9 110.79-10.85L110.79-10.85Q110.79-13.55 109.34-15.5L109.34-15.5Q108.84-16.15 107.92-16.55 106.99-16.95 106.09-16.95L106.09-16.95Q103.99-16.95 102.54-15.73 101.09-14.5 100.89-12.35L100.89-12.35Q100.69-9.45 100.69-7.35L100.69-7.35Q101.29-6.2 102.52-5.33 103.74-4.45 105.04-4.45L105.04-4.45ZM140.24-16.05Q140.64-15.35 140.89-14.03 141.14-12.7 141.14-11.65L141.14-11.65Q141.14-9.7 140.29-6.1L140.29-6.1Q136.84 0.2 130.09 0.2L130.09 0.2Q127.59 0.2 124.99-1.45 122.39-3.1 121.39-5.25L121.39-5.25Q120.04-9.55 120.04-10.7L120.04-10.7Q120.04-12.7 120.92-14.95 121.79-17.2 123.14-18.85L123.14-18.85Q123.99-20 126.19-20.83 128.39-21.65 130.19-21.65L130.19-21.65Q133.69-21.65 136.14-20.33 138.59-19 140.24-16.05L140.24-16.05ZM135.89-8Q136.14-8.65 136.14-11.35L136.14-11.35Q136.14-12.8 135.62-14.2 135.09-15.6 134.09-16.6L134.09-16.6Q133.99-16.7 133.54-16.93 133.09-17.15 132.32-17.38 131.54-17.6 130.54-17.6L130.54-17.6Q127.74-17.6 126.44-15.35 125.14-13.1 125.14-10.25L125.14-10.25Q125.14-9.75 125.42-8.35 125.69-6.95 125.89-6.6L125.89-6.6Q126.04-6.25 126.67-5.63 127.29-5 128.22-4.53 129.14-4.05 130.14-4.05L130.14-4.05Q132.39-4.05 133.74-5.13 135.09-6.2 135.89-8L135.89-8ZM162.94-22.05Q163.94-22.05 164.51-21.58 165.09-21.1 165.09-20.4L165.09-20.4Q165.09-19.9 164.91-19.38 164.74-18.85 164.54-18.3L164.54-18.3Q163.39-15.6 159.69-10.75L159.69-10.75Q163.49-5.85 165.84-4.45L165.84-4.45Q166.04-4.35 166.59-4.1 167.14-3.85 167.46-3.5 167.79-3.15 167.79-2.7L167.79-2.7Q167.79-1.6 166.96-0.93 166.14-0.25 164.99-0.25L164.99-0.25Q163.04-0.25 160.74-2.43 158.44-4.6 156.84-7L156.84-7Q155.69-5.25 154.21-3.53 152.74-1.8 151.49-0.6L151.49-0.6Q150.99-0.05 150.31 0.25 149.64 0.55 148.99 0.55L148.99 0.55Q148.09 0.55 147.39 0.15 146.69-0.25 146.69-1.25L146.69-1.25Q146.69-1.5 147.04-2.08 147.39-2.65 147.44-2.75L147.44-2.75Q148.04-3.8 149.04-4.93 150.04-6.05 150.29-6.35L150.29-6.35Q150.89-7.1 151.59-7.8L151.59-7.8Q151.99-8.25 152.79-9.2 153.59-10.15 153.89-10.7L153.89-10.7 152.14-13.1Q150.89-14.55 149.99-15.43 149.09-16.3 148.54-16.3L148.54-16.3Q147.74-16.3 147.04-15.85L147.04-15.85Q146.44-15.45 145.84-15.45L145.84-15.45Q145.19-15.45 144.84-15.78 144.49-16.1 144.49-16.5L144.49-16.5Q144.49-18.2 145.84-19.43 147.19-20.65 149.24-20.65L149.24-20.65Q151.19-20.65 152.71-19.33 154.24-18 155.74-15.8L155.74-15.8Q155.94-15.6 156.19-15.15 156.44-14.7 156.69-14.4L156.69-14.4Q157.24-15.2 158.69-17.5L158.69-17.5Q160.24-20.25 160.54-20.65L160.54-20.65Q161.59-22.05 162.94-22.05L162.94-22.05Z" opacity="1" transform="matrix(1,0,0,1,0,0)" fill="#8dbdff" class="undefined-text-0" data-fill-palette-color="primary" id="text-0"></path></svg></g></svg></g></svg></g></svg></g><g><svg viewBox="0 0 149.300241940603 149.3020554445798" height="149.3020554445798" width="149.300241940603"><g><svg xmlns="http://www.w3.org/2000/svg" xmlns:xlink="http://www.w3.org/1999/xlink" version="1.1" x="0" y="0" viewBox="5.412825107574463 5.195577621459961 79.76930236816406 79.77027130126953" enable-background="new 0 0 90 90" xml:space="preserve" height="149.3020554445798" width="149.300241940603" class="icon-icon-0" data-fill-palette-color="accent" id="icon-0"><path d="M54.624 83.27c-10.792 1.801-22.246-1.411-30.727-8.272-8.062-6.522-13.088-16.744-12.728-27.17 0.349-10.096 5.499-20.182 14.078-25.707 8.769-5.647 20.783-5.62 29.498 0.129 8.154 5.379 12.661 15.857 9.907 25.391-1.424 4.931-4.572 9.475-9.052 12.082-4.663 2.714-10.561 3.268-15.615 1.341-4.544-1.733-8.418-5.448-9.851-10.154-1.47-4.826-0.243-10.416 3.327-14.027 3.452-3.492 8.998-4.743 13.484-2.567 4.259 2.065 6.884 7.148 5.307 11.755-0.85 2.483-2.859 4.611-5.423 5.317-2.69 0.741-5.774-0.221-7.439-2.493-1.629-2.222-1.495-5.503 0.597-7.389 1.054-0.95 2.599-1.429 3.984-1.015 0.41 0.122 2.233 0.566 2.058 1.209 0.087-0.652-1.341-0.82-1.755-0.934-1.29-0.356-2.733 0.004-3.719 0.904-1.739 1.586-1.995 4.459-0.597 6.34 1.417 1.906 4.102 2.721 6.348 1.971 2.287-0.765 3.875-3.013 4.245-5.344 0.746-4.703-3.812-8.759-8.323-8.569-4.774 0.201-8.548 4.373-9.111 8.971-1.056 8.621 8.8 14.488 16.466 12.536 8.546-2.177 12.86-12.372 10.766-20.465-2.34-9.045-11.891-14.664-20.877-14.543-9.785 0.131-18.28 7.23-21.955 16.011-4.038 9.649-2.194 21.17 4.201 29.364 6.485 8.309 16.93 13.113 27.352 13.664 5.766 0.305 11.749-0.537 17.004-3.006 4.955-2.328 8.907-6.258 11.976-10.734 6.303-9.194 8.662-20.938 6.135-31.824C79.845 17.355 61.052 3.689 41.936 5.329 23.164 6.939 7.154 22.991 5.551 41.756c-0.918 10.74 2.777 21.76 9.928 29.817 7.078 7.976 17.424 12.875 28.071 13.353 6.118 0.275 12.303-0.876 17.903-3.359-2.472 0.844-4.993 1.695-7.622 1.838 0.506-0.028 0.982-0.246 1.492-0.242-1.79-0.014-3.465 0.776-5.242 0.87 1.034-0.055 2.103-0.271 3.095-0.566 0.337-0.101 1.458-0.578 1.755-0.242-0.207-0.235-1.358 0.182-1.613 0.243-0.926 0.221-1.953 0.452-2.902 0.51 0.426-0.026 4.536-0.711 4.53-0.755 0.008 0.065-4.022 0.607-4.613 0.769 0.714-0.196 1.505-0.245 2.235-0.367 0.292-0.048 2.164-0.591 2.374-0.402C54.91 83.194 54.661 83.264 54.624 83.27 43.928 85.055 57.114 82.88 54.624 83.27z" fill="#8dbdff" data-fill-palette-color="accent"></path></svg></g></svg></g></svg></g><defs></defs></svg><rect width="395.52" height="103.54099796569955" fill="none" stroke="none" visibility="hidden"></rect></g></svg></g></svg>